<svg width="32" height="32" viewBox="0 0 32 32" fill="none" xmlns="http://www.w3.org/2000/svg">
<path d="M16 1.88647C8.01418 1.88647 2 7.9574 2 15.9999C2 24.0425 8.01418 30.1134 16 30.1134C23.9858 30.1134 30 24.0425 30 15.9999C30 7.9574 23.9858 1.88647 16 1.88647ZM23.1773 16.851L16.5957 23.4326C16.2553 23.773 15.6879 23.773 15.3475 23.4326L8.9078 16.9929C7.33333 15.4184 7.06383 12.8794 8.42553 11.1205C10.0709 8.99286 13.1489 8.85101 14.9929 10.695L15.9716 11.6737L16.8511 10.7943C18.539 9.09215 21.3333 8.92194 23.078 10.5673C24.8794 12.2695 24.922 15.1063 23.1773 16.851Z" fill="#6500D9"/>
</svg>
