<svg width="224" height="30" viewBox="0 0 224 30" fill="none" xmlns="http://www.w3.org/2000/svg">
<g clip-path="url(#clip0_905_8735)">
<mask id="mask0_905_8735" style="mask-type:luminance" maskUnits="userSpaceOnUse" x="0" y="0" width="223" height="30">
<path d="M223 0.755859H0V29.2441H223V0.755859Z" fill="white"/>
</mask>
<g mask="url(#mask0_905_8735)">
<path d="M220.676 12.612C219.53 12.612 218.598 11.6801 218.598 10.5339C218.598 9.38768 219.53 8.45581 220.676 8.45581C221.822 8.45581 222.754 9.38768 222.754 10.5339C222.754 11.6801 221.822 12.612 220.676 12.612ZM220.676 8.88018C219.761 8.88018 219.022 9.62392 219.022 10.5339C219.022 11.4483 219.766 12.1876 220.676 12.1876C221.59 12.1876 222.329 11.4439 222.329 10.5339C222.329 9.62392 221.59 8.88018 220.676 8.88018Z" fill="white"/>
<path d="M219.989 9.51013H220.641C221.135 9.51013 221.411 9.78575 221.411 10.1139C221.411 10.3414 221.289 10.5339 221.061 10.6389L221.525 11.4701H221.079L220.667 10.7176H220.392V11.4701H219.989V9.51013ZM220.392 9.84263V10.3939H220.641C220.886 10.3939 221.004 10.2976 221.004 10.1182C221.004 9.94325 220.886 9.84263 220.641 9.84263H220.392Z" fill="white"/>
<path d="M129.606 8.3988C127.108 8.3988 125.358 9.44442 124.435 10.1838V9.37879C124.435 9.05067 124.168 8.78817 123.84 8.78817H120.896C120.568 8.78817 120.301 9.05505 120.301 9.37879V26.9486C120.301 27.2767 120.568 27.5392 120.896 27.5392H123.954C124.282 27.5392 124.544 27.2723 124.544 26.9486L124.549 14.8562C125.476 13.7581 127.091 12.45 129.484 12.45C130.871 12.45 132.192 13.0756 133.014 14.1256C133.544 14.7819 134.034 15.7225 134.034 18.1637V26.9486C134.034 27.2767 134.301 27.5392 134.629 27.5392H137.687C138.015 27.5392 138.277 27.2723 138.277 26.9486V18.3562C138.277 15.3375 137.726 13.3512 136.436 11.7194C134.795 9.60629 132.301 8.3988 129.606 8.3988Z" fill="white"/>
<path d="M157.995 8.7839H155.051C154.723 8.7839 154.461 9.05077 154.461 9.37452V10.1358C152.921 8.98077 151.105 8.39453 149.057 8.39453C147.373 8.39453 145.785 8.81015 144.464 9.59327C141.445 11.3782 139.643 14.5807 139.643 18.155C139.643 21.7206 141.432 24.91 144.424 26.6775C145.733 27.4518 147.491 27.9156 149.136 27.9156C151.114 27.9156 152.995 27.3031 154.461 26.1831V26.9356C154.461 27.2637 154.727 27.5262 155.051 27.5262H157.995C158.324 27.5262 158.586 27.2593 158.586 26.9356V9.3789C158.59 9.05077 158.324 8.7839 157.995 8.7839ZM154.338 21.48C153.183 22.9806 151.424 23.8731 149.639 23.8731C146.415 23.8731 143.891 21.3619 143.891 18.1594C143.891 14.9045 146.279 12.4457 149.447 12.4457C151.324 12.4457 153.157 13.3426 154.342 14.8432C154.347 14.8476 154.347 14.8563 154.347 14.8607L154.338 21.48Z" fill="white"/>
<path d="M170.149 24.1706C170.079 23.8512 169.773 23.6543 169.458 23.7156C168.942 23.8206 168.228 23.8731 167.791 23.8731C166.837 23.8731 165.914 23.5274 165.494 23.0068C165.1 22.5475 165.022 21.8212 165.022 20.8718V12.6426H169.497C169.825 12.6426 170.092 12.3757 170.092 12.0519V9.37885C170.092 9.05073 169.825 8.78823 169.497 8.78823H165.022V4.85078C165.022 4.6014 164.873 4.38703 164.641 4.29516C164.409 4.20766 164.151 4.26891 163.989 4.45266L161.01 7.78637C160.861 7.95262 160.782 8.16699 160.782 8.38574V20.6794C160.782 22.9106 161.285 24.5556 162.322 25.7018C163.608 27.1587 165.459 27.9243 167.682 27.9243C168.605 27.9243 169.598 27.8061 170.333 27.6136C170.643 27.5305 170.827 27.2243 170.761 26.9093L170.149 24.1706Z" fill="white"/>
<path d="M188.842 8.78381H185.784C185.456 8.78381 185.194 9.05069 185.194 9.37443L185.189 21.4624C184.559 22.1843 182.831 23.8686 180.373 23.8686C179.086 23.8686 177.853 23.313 177.069 22.3812C176.383 21.5762 176.094 20.5437 176.094 18.9293V9.37881C176.094 9.05069 175.827 8.78819 175.503 8.78819H172.445C172.117 8.78819 171.854 9.05506 171.854 9.37881V18.3562C171.854 21.3443 172.371 23.2605 173.583 24.7655C175.184 26.7736 177.621 27.9286 180.268 27.9286C182.748 27.9286 184.577 26.7692 185.321 26.2049V26.9486C185.321 27.2767 185.587 27.5392 185.916 27.5392H188.86C189.188 27.5392 189.455 27.2724 189.455 26.9486V9.37881C189.437 9.05069 189.171 8.78381 188.842 8.78381Z" fill="white"/>
<path d="M209.642 8.3988C204.344 8.3988 200.498 12.5069 200.498 18.1637C200.498 23.7286 204.663 27.9286 210.184 27.9286C214.634 27.9286 217.053 25.6317 217.884 24.643C218.085 24.4067 218.063 24.0524 217.836 23.8336L215.872 21.9655C215.758 21.8562 215.613 21.7949 215.447 21.8037C215.285 21.808 215.141 21.8737 215.027 21.9918C214.082 22.9936 212.682 24.1486 210.224 24.1486C207.354 24.1486 204.982 22.0399 204.654 19.2224H218.063C218.374 19.2224 218.637 18.9774 218.654 18.6624C218.667 18.4437 218.667 18.2731 218.667 18.1637C218.667 12.5944 214.787 8.3988 209.642 8.3988ZM205.035 15.5562C205.722 13.5612 207.638 12.1788 209.76 12.1788C211.733 12.1788 213.566 13.5875 214.183 15.5562H205.035Z" fill="white"/>
<path d="M200.8 11.877V9.03325C200.8 8.867 200.73 8.70513 200.603 8.59138C200.481 8.47763 200.315 8.42513 200.148 8.44263C198.446 8.61325 196.898 9.31762 195.843 10.3851V9.37887C195.843 9.05075 195.576 8.78825 195.253 8.78825H192.308C191.98 8.78825 191.718 9.05512 191.718 9.37887V26.9487C191.718 27.2768 191.985 27.5393 192.308 27.5393H195.366C195.695 27.5393 195.961 27.2724 195.961 26.9487L195.966 15.2938C196.893 13.7451 198.617 12.6076 200.253 12.4676C200.564 12.4413 200.8 12.1876 200.8 11.877Z" fill="white"/>
<path d="M7.5058 16.0287C5.67269 15.5606 4.46958 15.18 4.46958 14.1781C4.46958 12.8044 6.02706 12.1788 7.47517 12.1788C8.66516 12.1788 9.84202 12.5813 10.9708 13.3775C11.2376 13.5656 11.6051 13.5044 11.7933 13.2419L13.3332 11.1025C13.5214 10.8444 13.4689 10.4769 13.2151 10.2844C11.5614 9.03317 9.55328 8.3988 7.23893 8.3988C3.86146 8.3988 0.221503 10.2669 0.221503 14.3706C0.221503 16.6543 1.73524 18.3693 4.59646 19.3231C5.24395 19.5374 5.90457 19.7081 6.54331 19.8699C8.73953 20.4343 10.087 20.8455 10.087 22.1449C10.087 23.3961 8.61704 24.1443 7.19955 24.1443C5.54144 24.1443 3.82646 23.5318 2.24273 22.3768C2.11148 22.2805 1.94961 22.2412 1.79211 22.2674C1.63461 22.2936 1.49899 22.3811 1.40712 22.508L-0.137243 24.7174C-0.320991 24.9799 -0.268491 25.3386 -0.0147443 25.5311C2.05461 27.1192 4.50458 27.9242 7.2783 27.9242C10.6995 27.9242 14.3351 25.8724 14.3351 22.0662C14.3395 17.7831 9.55328 16.5537 7.5058 16.0287Z" fill="white"/>
<path d="M24.0738 8.3988C18.7758 8.3988 14.9302 12.5069 14.9302 18.1637C14.9302 23.7286 19.0951 27.9286 24.6163 27.9286C29.0656 27.9286 31.485 25.6317 32.3162 24.643C32.5175 24.4067 32.4956 24.0524 32.2681 23.8336L30.3038 21.9655C30.19 21.8562 30.0369 21.7993 29.8794 21.8037C29.7175 21.808 29.5731 21.8737 29.4594 21.9918C28.5144 22.9936 27.1188 24.1486 24.6557 24.1486C21.7857 24.1486 19.4145 22.0399 19.0864 19.2224H32.4956C32.8062 19.2224 33.0687 18.9774 33.0862 18.6624C33.0994 18.4437 33.0994 18.2731 33.0994 18.1637C33.1037 12.5944 29.2231 8.3988 24.0738 8.3988ZM19.467 15.5562C20.1539 13.5612 22.0701 12.1788 24.1919 12.1788C26.1651 12.1788 27.9982 13.5875 28.615 15.5562H19.467Z" fill="white"/>
<path d="M49.8381 21.2787C49.5844 21.0905 49.2256 21.143 49.0287 21.3924C47.7075 23.0418 46.0713 23.8774 44.1725 23.8774C40.7863 23.8774 38.4239 21.528 38.4239 18.1637C38.4239 14.9087 40.7951 12.45 43.9407 12.45C46.3163 12.45 47.8519 13.9419 48.5519 14.83C48.6525 14.9569 48.8012 15.04 48.9631 15.0575C49.1206 15.0706 49.2781 15.0269 49.4006 14.9219L51.6362 13.0363C51.8812 12.8306 51.9206 12.4719 51.7281 12.2225C49.8819 9.82941 46.9725 8.3988 43.9407 8.3988C38.3757 8.3988 34.1758 12.5944 34.1758 18.1637C34.1758 23.7286 38.472 27.9286 44.1725 27.9286C47.4275 27.9286 50.7131 26.2661 52.3406 23.7899C52.5156 23.5274 52.4456 23.173 52.1875 22.9849L49.8381 21.2787Z" fill="white"/>
<path d="M82.8729 8.3988C80.3748 8.3988 78.6248 9.44442 77.7017 10.1838V9.61941C77.7017 9.16004 77.3298 8.7838 76.8661 8.7838H74.403C73.9436 8.7838 73.5674 9.15567 73.5674 9.61941V26.708C73.5674 27.1673 73.9392 27.5436 74.403 27.5436H76.9798C77.4392 27.5436 77.8155 27.1717 77.8155 26.708V14.9612C77.8155 14.8956 77.8373 14.8344 77.8767 14.7906C78.7998 13.7231 80.3967 12.45 82.7548 12.45C84.1416 12.45 85.4629 13.0756 86.2854 14.1256C86.8147 14.7819 87.3047 15.7225 87.3047 18.1637V26.708C87.3047 27.1673 87.6766 27.5436 88.1403 27.5436H90.7172C91.1766 27.5436 91.5528 27.1717 91.5528 26.708V18.3562C91.5528 15.3375 91.0016 13.3512 89.711 11.7194C88.0572 9.60629 85.5635 8.3988 82.8729 8.3988Z" fill="white"/>
<path d="M111.669 0.0383212C111.437 -0.0491778 111.179 0.0120716 111.018 0.19582L107.959 3.61703C107.863 3.72641 107.806 3.8664 107.806 4.01078V10.0745C106.293 8.97635 104.468 8.39885 102.521 8.39885C100.837 8.39885 99.2489 8.81447 97.9276 9.59759C94.9089 11.3826 93.1064 14.585 93.1064 18.1594C93.1064 21.725 94.8958 24.9143 97.8883 26.6818C99.1964 27.4561 100.959 27.9199 102.6 27.9199C104.578 27.9199 106.459 27.3074 107.924 26.1874V26.6993C107.924 27.1586 108.296 27.5349 108.76 27.5349H111.223C111.682 27.5349 112.059 27.163 112.059 26.6993V0.589565C112.05 0.344568 111.901 0.12582 111.669 0.0383212ZM107.806 21.375C107.806 21.4362 107.784 21.4975 107.749 21.5412C106.594 23.0024 104.858 23.8731 103.099 23.8731C99.8745 23.8731 97.3502 21.3618 97.3502 18.1594C97.3502 14.9044 99.7389 12.4457 102.906 12.4457C104.779 12.4457 106.546 13.2988 107.749 14.7819C107.784 14.8257 107.806 14.8869 107.806 14.9482V21.375Z" fill="white"/>
<path d="M62.3547 8.41638C56.8422 8.41638 52.686 12.6076 52.686 18.1638C52.686 23.72 56.8422 27.9112 62.3547 27.9112C67.8671 27.9112 72.0233 23.72 72.0233 18.1638C72.0233 12.6076 67.8671 8.41638 62.3547 8.41638ZM67.3115 18.7456L62.7703 23.2868C62.5297 23.5275 62.1447 23.5275 61.9041 23.2868L57.4547 18.8375C56.3697 17.7525 56.1816 16.0025 57.1222 14.7863C58.2597 13.3163 60.386 13.2201 61.6591 14.4932L62.3372 15.1713L62.9497 14.5588C64.1222 13.3863 66.0428 13.2682 67.2459 14.4057C68.4927 15.5782 68.5146 17.5425 67.3115 18.7456Z" fill="white"/>
</g>
</g>
<defs>
<clipPath id="clip0_905_8735">
<rect width="223.64" height="28.4882" fill="white" transform="translate(0 0.755859)"/>
</clipPath>
</defs>
</svg>
