<?xml version="1.0" encoding="UTF-8"?>
<svg id="Layer_2" data-name="Layer 2" xmlns="http://www.w3.org/2000/svg" xmlns:xlink="http://www.w3.org/1999/xlink" viewBox="0 0 443.78 406.54">
  <defs>
    <style>
      .cls-1 {
        fill: none;
      }

      .cls-2 {
        fill: #f8f8ff;
      }

      .cls-3 {
        fill: #c9a2f0;
      }

      .cls-4 {
        fill: #6500d9;
      }

      .cls-5 {
        fill: #fd9b79;
      }

      .cls-6 {
        fill: #fbb5a0;
      }

      .cls-7 {
        fill: #dfc8f5;
      }

      .cls-8 {
        clip-path: url(#clippath);
      }
    </style>
    <clipPath id="clippath">
      <circle class="cls-1" cx="201.5" cy="219.03" r="155.11"/>
    </clipPath>
  </defs>
  <circle class="cls-7" cx="201.5" cy="219.03" r="155.11"/>
  <g class="cls-8">
    <g>
      <path class="cls-2" d="M158.49,237.03v98.14H5.93c-5.48,0-9.93-4.45-9.93-9.93v-88.2h162.49Z"/>
      <path class="cls-3" d="M248.58,238.64v93.31c0,1.78-1.44,3.22-3.22,3.22h-89.43v-96.53s46.32-57.26,46.32-57.26l27.02,18.65,16.09,22.52,3.22,16.09Z"/>
      <path class="cls-4" d="M-4.2,245.08h154.73c2.19,0,4.3-.86,5.87-2.39l48.52-47.38c2.9-2.84,7.63-2.5,10.11.71l32.11,41.69c2.67,3.57,7.72,4.28,11.26,1.61,2.12-1.58,3.22-3.99,3.22-6.44,0-1.67-.51-3.38-1.61-4.83l-33.88-45.08-9.5-12.62c-1.19-1.58-3.05-2.5-5.02-2.5H42.85c-2.14,0-4.14,1.04-5.38,2.78L-8.87,236.05c-2.68,3.79.03,9.02,4.67,9.02Z"/>
    </g>
  </g>
  <g>
    <path class="cls-4" d="M314.44,251.86c1.05,0,1.92.89,1.87,1.93-.62,13.03-7.6,20.78-18.98,20.78-10.11-.17-18-8.35-18-18.28V34.25c0-1.02.83-1.85,1.85-1.85h7.66c1.02,0,1.85.83,1.85,1.85v222.04c0,3.75,2.9,6.87,6.36,6.93,2.31-.05,7.34,0,7.9-9.56.06-1,.84-1.8,1.84-1.8h7.65Z"/>
    <path class="cls-5" d="M397.39,157.94s-8.54-24.05-26.45-24.05c-11.02,0-19.78,6.58-24.91,13.89v.09c-3.12,4.53-4.87,9.31-4.87,12.95,0,0-.73-10.13-7.22-17.86-3.97-4.74-10.17-8.54-19.7-8.54-12.13,0-19.35,4.74-23.54,9.7-4.57,5.17-5.68,10.55-5.68,10.55,0,0-1.15-5.38-5.68-10.55-4.19-4.96-11.41-9.7-23.58-9.7-8.97,0-14.95,3.38-19.01,7.78-7.09,7.78-7.9,18.63-7.9,18.63,0,0-1.5-7.86-4.36-12.18-4.96-7.61-13.93-14.74-25.38-14.74-17.94,0-26.45,24.05-26.45,24.05,0-65.88,44.01-91.99,76.9-102.33,3.2-1.03,6.45-1.88,9.74-2.56,5.17-1.15,10.38-1.97,15.59-2.35,1.5-.17,2.95-.26,4.44-.34,3.76-.17,7.56-.17,11.36,0,1.62.09,3.29.21,5,.38,5.21.38,10.42,1.24,15.55,2.39,3.12.68,6.19,1.54,9.23,2.48,32.94,10.34,76.9,36.44,76.9,102.33Z"/>
    <path class="cls-6" d="M259.29,53.07c5.17-1.19,10.39-1.99,15.61-2.38-9.65,13-31.63,46.62-38.16,91.47-7.1,7.78-7.89,18.62-7.89,18.62,0,0-1.53-7.84-4.37-12.15,4.37-43.21,22.43-76.99,34.81-95.56Z"/>
    <path class="cls-4" d="M279.56,44.78s-.06.11-.23.23v-.45l.23.23Z"/>
    <path class="cls-6" d="M346.05,147.78v.06c-3.12,4.54-4.88,9.31-4.88,12.95,0,0-.74-10.11-7.21-17.83-6.7-44.35-28.39-78.53-38.27-92.21,5.22.4,10.45,1.25,15.56,2.38,12.15,18.79,29.98,52.46,34.81,94.65Z"/>
    <path class="cls-6" d="M290.7,50.36v93.74c-4.57,5.17-5.68,10.55-5.68,10.55,0,0-1.15-5.38-5.68-10.55V50.36c3.76-.17,7.56-.17,11.36,0Z"/>
  </g>
</svg>