<?xml version="1.0" encoding="UTF-8"?>
<svg id="Layer_2" data-name="Layer 2" xmlns="http://www.w3.org/2000/svg" viewBox="0 0 443.78 406.54">
  <defs>
    <style>
      .cls-1 {
        fill: #f8f8ff;
      }

      .cls-2 {
        fill: #c9a2f0;
      }

      .cls-3 {
        fill: #6500d9;
      }

      .cls-4 {
        fill: #fd9b79;
      }

      .cls-5 {
        fill: #dfc8f5;
      }
    </style>
  </defs>
  <rect class="cls-5" x="46.39" y="134.61" width="351" height="200.19" rx="1.77" ry="1.77"/>
  <g>
    <g>
      <path class="cls-2" d="M356.67,219.48c.1,4.62-3.54,8.46-8.16,8.46H95.27c-4.62,0-8.26-3.84-8.16-8.46,1.6-73.08,61.32-131.86,134.78-131.86s133.18,58.79,134.78,131.86Z"/>
      <path class="cls-3" d="M304.48,222.76c.06,2.83-2.17,5.18-5,5.18h-155.19c-2.83,0-5.06-2.35-5-5.18.98-44.78,37.58-80.81,82.6-80.81s81.61,36.03,82.6,80.81Z"/>
      <g>
        <path class="cls-3" d="M147.05,197.12c-1.04,0-2.09-.26-3.07-.8l-52.47-29.1c-3.06-1.7-4.16-5.55-2.46-8.61,1.69-3.06,5.55-4.17,8.61-2.46l52.47,29.1c3.06,1.7,4.16,5.55,2.46,8.61-1.15,2.09-3.32,3.26-5.54,3.26Z"/>
        <path class="cls-3" d="M296.73,197.12c-2.23,0-4.39-1.18-5.54-3.26-1.7-3.06-.59-6.91,2.46-8.61l52.47-29.1c3.06-1.7,6.91-.59,8.61,2.46,1.7,3.06.59,6.91-2.46,8.61l-52.47,29.1c-.97.54-2.03.8-3.07.8Z"/>
      </g>
      <path class="cls-3" d="M221.89,159.34c-3.5,0-6.33-2.83-6.33-6.33v-74.94c0-3.5,2.83-6.33,6.33-6.33s6.33,2.83,6.33,6.33v74.94c0,3.5-2.83,6.33-6.33,6.33Z"/>
      <circle class="cls-4" cx="218.72" cy="206.77" r="21.18"/>
      <path class="cls-4" d="M292.84,122.95l-69.94,66.42c-.13.12-.13.33,0,.45l13.9,12.09c.14.12.35.09.45-.05l56.04-78.51c.22-.3-.19-.66-.46-.4Z"/>
    </g>
    <g>
      <path class="cls-1" d="M132.51,247.95l7.94,16.09c.47.95,1.37,1.6,2.42,1.76l17.76,2.58c2.63.38,3.68,3.62,1.78,5.47l-12.85,12.53c-.76.74-1.1,1.8-.92,2.84l3.03,17.69c.45,2.62-2.3,4.62-4.66,3.38l-15.88-8.35c-.93-.49-2.05-.49-2.99,0l-15.88,8.35c-2.35,1.24-5.1-.76-4.66-3.38l3.03-17.69c.18-1.04-.17-2.1-.92-2.84l-12.85-12.53c-1.9-1.86-.85-5.09,1.78-5.47l17.76-2.58c1.04-.15,1.95-.81,2.42-1.76l7.94-16.09c1.18-2.38,4.58-2.38,5.75,0Z"/>
      <path class="cls-1" d="M224.77,247.95l7.94,16.09c.47.95,1.37,1.6,2.42,1.76l17.76,2.58c2.63.38,3.68,3.62,1.78,5.47l-12.85,12.53c-.76.74-1.1,1.8-.92,2.84l3.03,17.69c.45,2.62-2.3,4.62-4.66,3.38l-15.88-8.35c-.93-.49-2.05-.49-2.99,0l-15.88,8.35c-2.35,1.24-5.1-.76-4.66-3.38l3.03-17.69c.18-1.04-.17-2.1-.92-2.84l-12.85-12.53c-1.9-1.86-.85-5.09,1.78-5.47l17.76-2.58c1.04-.15,1.95-.81,2.42-1.76l7.94-16.09c1.18-2.38,4.58-2.38,5.75,0Z"/>
      <path class="cls-1" d="M317.02,247.95l7.94,16.09c.47.95,1.37,1.6,2.42,1.76l17.76,2.58c2.63.38,3.68,3.62,1.78,5.47l-12.85,12.53c-.76.74-1.1,1.8-.92,2.84l3.03,17.69c.45,2.62-2.3,4.62-4.66,3.38l-15.88-8.35c-.93-.49-2.05-.49-2.99,0l-15.88,8.35c-2.35,1.24-5.1-.76-4.66-3.38l3.03-17.69c.18-1.04-.17-2.1-.92-2.84l-12.85-12.53c-1.9-1.86-.85-5.09,1.78-5.47l17.76-2.58c1.04-.15,1.95-.81,2.42-1.76l7.94-16.09c1.18-2.38,4.58-2.38,5.75,0Z"/>
    </g>
  </g>
</svg>