<?xml version="1.0" encoding="UTF-8"?>
<svg id="Layer_2" data-name="Layer 2" xmlns="http://www.w3.org/2000/svg" viewBox="0 0 443.78 406.54">
  <defs>
    <style>
      .cls-1 {
        stroke: #6500d9;
        stroke-miterlimit: 10;
        stroke-width: 4px;
      }

      .cls-1, .cls-2 {
        fill: #6500d9;
      }

      .cls-3 {
        fill: #c9a2f0;
      }

      .cls-4 {
        fill: #fbb5a0;
      }
    </style>
  </defs>
  <g>
    <path class="cls-4" d="M371.42,146.16c-23.79-55.6-78.99-94.57-143.3-94.57-46.49,0-88.22,20.37-116.77,52.67l260.07,41.9Z"/>
    <path class="cls-4" d="M85.77,270.8c24.29,54.45,78.88,92.41,142.35,92.41,45.65,0,86.71-19.63,115.2-50.91l-257.56-41.49Z"/>
  </g>
  <rect class="cls-3" x="148.3" y="40.78" width="147.18" height="333.23" rx="12" ry="12" transform="translate(-18.16 393.48) rotate(-80.85)"/>
  <g>
    <rect class="cls-1" x="82.6" y="124.69" width="8.78" height="8.78" rx="4.12" ry="4.12" transform="translate(21.64 -12.19) rotate(9.15)"/>
    <rect class="cls-1" x="369.64" y="170.94" width="8.78" height="8.78" rx="4.12" ry="4.12" transform="translate(32.65 -57.26) rotate(9.15)"/>
    <rect class="cls-1" x="64.84" y="234.93" width="8.78" height="8.78" rx="4.12" ry="4.12" transform="translate(38.95 -7.96) rotate(9.15)"/>
    <rect class="cls-1" x="351.88" y="281.17" width="8.78" height="8.78" rx="4.12" ry="4.12" transform="translate(49.95 -53.03) rotate(9.15)"/>
  </g>
  <g>
    <path class="cls-2" d="M242.7,173.79c-4.05-6.58-10.98-10.68-18.47-12.17-6.45-1.28-13.56-1.34-19.99.07-7.65,1.67-14.75,7.45-14.28,15.98.5,9.18,7.85,15.38,14.63,20.55.72.55,1.45,1.1,2.17,1.65.33.25.67.51,1,.76.59.45-.59-.48-.01,0,.22.17.44.34.66.52.97.77,1.93,1.55,2.91,2.3,2.17,1.69,4.35,3.36,6.48,5.09,2.31,1.89,4.57,3.85,6.68,5.97,1.06,1.07,2.08,2.17,3.04,3.33.06.08.53.75.6.74-.03,0-.74-.99-.2-.26.09.13.19.25.28.37.42.58.82,1.17,1.2,1.77.34.55.67,1.11.97,1.68.16.3.3.61.46.92.5,1.01-.33-.93.07.14.21.58.41,1.15.57,1.75.07.27.14.54.2.81.04.18.07.37.11.55.15.68-.06-.34-.06-.5-.02.59.1,1.2.1,1.8,0,.33-.03.65-.04.98,0,.17-.09.69.03-.1.14-.92-.02.05-.04.19-.12.63-.28,1.24-.48,1.85-.08.23-.51,1.03-.13.41s.03-.06-.07.13-.19.39-.29.58c-.33.63-.69,1.24-1.09,1.82-.04.06-.37.52-.37.52-.02-.02.65-.77.3-.39-.24.26-.46.55-.71.81-.48.51-1,.97-1.52,1.44-.66.58.81-.54.07-.06-.33.21-.64.44-.97.64-.54.33-1.11.58-1.66.88-.46.25.54-.22.52-.21-.17.04-.37.15-.54.21-.36.14-.73.26-1.1.37-.6.18-1.22.34-1.84.46-.29.06-.58.09-.87.16-.53.12.62-.07.59-.07-.24,0-.5.06-.74.08-1.35.12-2.7.13-4.05.04-.35-.02-.71-.06-1.06-.09-1.16-.1.82.15-.05,0-.71-.12-1.41-.24-2.11-.4-1.35-.3-2.68-.69-3.98-1.16-.34-.12-.67-.25-1-.38-.85-.32.89.41.06.03-.69-.31-1.37-.63-2.03-.98-1.16-.61-2.29-1.29-3.37-2.04-.21-.15-.42-.3-.63-.45-.08-.06-.59-.47-.11-.08s-.41-.35-.55-.47c-.74-.63-1.45-1.29-2.13-1.98-.59-.6-1.15-1.22-1.69-1.87-.18-.21-.97-1.3-.31-.36-.26-.37-.53-.73-.79-1.1-1.02-1.49-1.92-3.07-2.69-4.71-.06-.12-.24-.39-.24-.53,0,.02.33.83.12.29-.16-.42-.33-.84-.48-1.27-.3-.85-.57-1.72-.8-2.59-.67-2.51-3.56-4.29-6.1-3.46s-4.19,3.42-3.46,6.1c3.69,13.73,15.39,24.72,29.52,26.95,6.35,1,13.11.58,18.71-2.89s9.9-10.09,10.11-17.02c.2-6.51-3.25-12.36-7.29-17.18-3.81-4.56-8.48-8.34-13.15-11.98-2.07-1.61-4.13-3.23-6.19-4.85-1.7-1.34-3.44-2.64-5.16-3.96-.22-.17-.44-.34-.67-.51.05.04.62.48.18.14-.38-.3-.77-.6-1.15-.91-.76-.61-1.51-1.24-2.24-1.88-1.42-1.26-2.68-2.63-3.93-4.05-.49-.56.41.63.01.01-.11-.17-.24-.33-.35-.5-.27-.4-.52-.8-.75-1.22-.2-.35-.36-.73-.56-1.08-.27-.48.08.2.1.26-.11-.31-.23-.62-.33-.94-.14-.44-.24-.89-.34-1.34-.21-.93-.02.72-.02-.23,0-.45.02-.91.02-1.36,0-.62-.02.38-.05.35-.05-.03.16-.7.18-.77.07-.26.17-.51.24-.76-.03.09-.38.71-.09.24.26-.42.51-.87.76-1.29.44-.73-.64.66-.04.07.28-.27.56-.56.84-.83.58-.58-.92.59.06-.05.25-.16.5-.33.77-.49.31-.18.62-.35.95-.51.14-.07.29-.12.42-.2.53-.29-1.17.42-.17.08,1.4-.47,2.79-.87,4.24-1.12.16-.03.33-.05.49-.08.96-.18-.33.06-.33.04,0-.03.91-.11.99-.11.82-.08,1.65-.14,2.47-.18,1.41-.06,2.82-.07,4.23-.03.66.02,1.32.04,1.98.08.71.04,1.87.4,2.53.22-.02,0-.98-.15-.41-.05.18.03.36.05.54.08.42.07.84.15,1.26.23.84.17,1.67.38,2.49.62s1.61.54,2.42.82c.53.18-.33-.12-.34-.15.03.07.42.19.5.22.44.2.87.42,1.3.64.69.37,1.36.77,2.01,1.21.2.14,1.15.87.66.46s.45.39.6.54c.63.57,1.2,1.19,1.77,1.82.63.69-.4-.62.13.16.28.41.56.82.82,1.25,1.36,2.21,4.5,3.25,6.79,1.78s3.24-4.42,1.78-6.79h0Z"/>
    <path class="cls-2" d="M211.54,155.48c-4.33,25.45-8.66,50.89-12.99,76.34-1.23,7.22-2.46,14.45-3.69,21.67-.43,2.55.67,5.47,3.46,6.1,2.4.55,5.64-.73,6.1-3.46,4.33-25.45,8.66-50.89,12.99-76.34,1.23-7.22,2.46-14.45,3.69-21.67.43-2.55-.67-5.47-3.46-6.1-2.4-.55-5.64.73-6.1,3.46h0Z"/>
    <path class="cls-2" d="M226.96,157.32c-4.33,25.45-8.66,50.89-12.99,76.34-1.23,7.22-2.46,14.45-3.69,21.67-.43,2.55.67,5.47,3.46,6.1,2.4.55,5.64-.73,6.1-3.46,4.33-25.45,8.66-50.89,12.99-76.34,1.23-7.22,2.46-14.45,3.69-21.67.43-2.55-.67-5.47-3.46-6.1-2.4-.55-5.64.73-6.1,3.46h0Z"/>
  </g>
  <rect class="cls-2" x="271.72" y="43.33" width="61.79" height="102.87" rx="6.92" ry="6.92"/>
  <path class="cls-2" d="M356.6,137.86l-47.32,47.32c-3.68,3.68-9.65,3.68-13.33,0l-47.32-47.32c-5.94-5.94-1.73-16.09,6.67-16.09h94.64c8.4,0,12.6,10.15,6.67,16.09Z"/>
</svg>