<?xml version="1.0" encoding="UTF-8"?>
<svg id="Layer_2" data-name="Layer 2" xmlns="http://www.w3.org/2000/svg" viewBox="0 0 443.78 406.54">
  <defs>
    <style>
      .cls-1 {
        fill: #fff;
      }

      .cls-2 {
        fill: #6500d9;
      }

      .cls-3 {
        fill: #c399ef;
      }
    </style>
  </defs>
  <g id="speech_bubbles_comment_option" data-name="speech bubbles comment option">
    <g id="Group_10" data-name="Group 10">
      <g id="Group_11" data-name="Group 11">
        <path id="Vector_41" data-name="Vector 41" class="cls-2" d="M188.2,255.72c-22.6-9.53-40.43-22.49-53.51-38.91-13.07-16.41-19.6-34.28-19.6-53.61,0-19.33,6.54-37.2,19.61-53.61,13.07-16.41,30.9-29.38,53.5-38.9,22.6-9.53,47.18-14.29,73.74-14.29,26.56,0,51.14,4.76,73.74,14.29,22.6,9.53,40.43,22.49,53.5,38.9,13.07,16.41,19.61,34.28,19.61,53.61,0,16.55-4.94,32.13-14.82,46.73-9.87,14.6-23.43,26.91-40.67,36.92,1.39,3.34,2.81,6.4,4.28,9.18,1.46,2.78,3.2,5.46,5.21,8.03,2.02,2.58,3.58,4.59,4.69,6.05,1.11,1.46,2.92,3.52,5.43,6.15,2.5,2.64,4.1,4.38,4.8,5.21,0-.14.28.17.84.94.56.76.87,1.11.94,1.04.07-.07.35.27.84,1.04.49.77.73,1.15.73,1.15l.52,1.04c.21.42.35.83.42,1.25.07.41.1.87.1,1.36s-.07.93-.21,1.35c-.28,1.81-1.08,3.26-2.4,4.38-1.32,1.11-2.74,1.67-4.27,1.67h-.63c-6.95-.97-12.93-2.09-17.94-3.34-21.42-5.56-40.75-14.46-57.99-26.7-12.52,2.23-24.75,3.34-36.71,3.34-26.56,0-51.15-4.75-73.74-14.28Z"/>
        <path id="Vector_42" data-name="Vector 42" class="cls-3" d="M49.79,263.44c-9.88-14.53-14.81-30.14-14.81-46.83,0-17.11,5.22-33.11,15.65-47.99,10.43-14.88,24.62-27.26,42.55-37.13-3.2,10.43-4.79,21-4.79,31.71,0,18.63,4.65,36.3,13.97,52.99,9.32,16.69,22.67,31.42,40.05,44.22,16.13,11.68,34.49,20.65,55.07,26.91,20.58,6.26,42.07,9.39,64.45,9.39,4.17,0,10.29-.28,18.36-.83-27.95,18.35-60.77,27.53-98.46,27.53-11.96,0-24.2-1.12-36.71-3.34-17.24,12.24-36.58,21.14-57.99,26.7-5.01,1.26-10.99,2.36-17.94,3.34-1.67.14-3.2-.35-4.59-1.46-1.39-1.11-2.3-2.64-2.71-4.58.07-.84,0-1.29-.21-1.36-.21-.07-.17-.52.11-1.35.27-.84.41-1.25.41-1.25l.52-1.04c.14-.27.38-.66.73-1.15.35-.48.63-.83.84-1.04.21-.21.52-.56.94-1.04.41-.48.69-.8.83-.94.7-.83,2.29-2.57,4.8-5.21,2.51-2.64,4.31-4.69,5.42-6.15,1.11-1.46,2.68-3.47,4.69-6.05,2.01-2.57,3.75-5.25,5.22-8.03,1.46-2.78,2.88-5.84,4.27-9.18-17.24-10.02-30.8-22.29-40.67-36.83Z"/>
      </g>
    </g>
  </g>
  <g id="_2021_SN_Hearti_Logo_Purple" data-name="2021_SN_Hearti_Logo_Purple">
    <path class="cls-1" d="M256.56,130.92l5.56,5.57,6.18-6.19c11.59-11.58,30.92-10.69,41.3,2.69,8.58,11.06,6.88,27-3.02,36.9l-40.52,40.52c-2.18,2.18-5.71,2.18-7.89,0l-41.37-41.37c-10.95-10.95-10.75-28.83.61-39.53,10.98-10.33,28.48-9.25,39.14,1.41"/>
  </g>
</svg>