<?xml version="1.0" encoding="UTF-8"?>
<svg id="Layer_2" data-name="Layer 2" xmlns="http://www.w3.org/2000/svg" viewBox="0 0 443.78 406.54">
  <defs>
    <style>
      .cls-1 {
        fill: #f8f8ff;
      }

      .cls-2 {
        fill: #6500d9;
      }

      .cls-3 {
        fill: none;
        stroke: #c9a2f0;
        stroke-miterlimit: 10;
        stroke-width: 24.4px;
      }

      .cls-4 {
        fill: #fd9b79;
      }
    </style>
  </defs>
  <rect class="cls-3" x="151.04" y="47.68" width="146.96" height="248.04" rx="73.48" ry="73.48"/>
  <g id="_2021_SN_Hearti_Logo_Purple" data-name="2021_SN_Hearti_Logo_Purple">
    <path class="cls-2" d="M234.49,169l-13.02,13.03-14.47-14.48c-27.12-27.11-72.37-25.01-96.66,6.29-20.09,25.89-16.1,63.19,7.07,86.36l94.83,94.84c5.1,5.1,13.36,5.1,18.46,0l96.83-96.83c25.64-25.63,25.16-67.48-1.42-92.5-25.69-24.18-66.66-21.65-91.61,3.3"/>
  </g>
  <circle class="cls-4" cx="221.89" cy="237.91" r="26.1"/>
  <rect class="cls-4" x="207.09" y="245.75" width="29.6" height="49.97" rx="14.8" ry="14.8"/>
  <path class="cls-1" d="M152.25,164.36c-14.77,3.51-26.69,14.71-32.88,28.35-1.81,3.99-3.3,8.08-4.29,12.35-.78,3.36,1.04,7.31,4.61,8.12,3.37.77,7.29-1.01,8.12-4.61.37-1.62.81-3.22,1.32-4.8.24-.73.49-1.46.75-2.19.12-.33.25-.67.38-1,.09-.24.74-1.81.27-.69s.14-.3.24-.51c.15-.32.3-.65.45-.97.36-.75.73-1.48,1.12-2.21.78-1.45,1.62-2.87,2.54-4.24.42-.63.86-1.26,1.31-1.87.29-.4,1.23-1.48-.08.08.26-.31.51-.64.77-.95,1.04-1.25,2.15-2.45,3.32-3.59.54-.53,1.1-1.04,1.67-1.53.26-.23.53-.45.8-.68.18-.15.36-.29.54-.44.68-.56-.36.28-.51.39,1.34-.94,2.65-1.89,4.06-2.72.76-.44,1.53-.86,2.32-1.25.42-.21.85-.41,1.28-.6,1.3-.59-1.1.42-.11.04,1.81-.69,3.63-1.29,5.52-1.73,3.36-.8,5.68-4.81,4.61-8.12-1.13-3.5-4.52-5.47-8.12-4.61h0Z"/>
  <path class="cls-1" d="M287.16,174.45c1.21.14-1.42-.24-.22-.03.45.08.89.14,1.34.23.82.15,1.64.34,2.45.54,1.69.43,3.34.97,4.96,1.61.18.07.36.15.54.22.06.02-1.34-.59-.69-.29.35.17.71.32,1.06.48.82.39,1.62.8,2.41,1.24,1.47.81,2.88,1.72,4.25,2.7.16.11.31.23.47.34.88.64-.33-.26-.41-.33.29.25.61.48.9.73.7.58,1.37,1.17,2.03,1.79,1.22,1.15,2.37,2.37,3.45,3.66.25.3.47.62.73.9.04.04-.86-1.15-.44-.57.15.21.31.41.46.62.46.64.91,1.3,1.33,1.97.84,1.33,1.61,2.71,2.29,4.14.15.31.3.63.44.95.04.09.23.38.21.48-.01.08-.57-1.42-.33-.77.29.76.59,1.51.85,2.28.48,1.43.89,2.88,1.22,4.35.17.74.31,1.48.44,2.22.06.34.11.69.17,1.03.04.24.13.9-.02-.19-.17-1.25-.01-.04,0,.16.17,1.51.26,3.02.28,4.54s-.03,3.05-.15,4.56c-.06.76-.15,1.52-.23,2.28-.07.65.13-.88.12-.88-.03,0-.07.48-.08.52-.06.41-.13.81-.2,1.22-.54,3.07-1.35,6.1-2.43,9.02-.14.39-.29.77-.44,1.15-.08.21-.16.45-.26.65.08-.16.62-1.42.25-.6s-.72,1.6-1.12,2.39c-.76,1.52-1.59,3-2.5,4.43-.47.74-.96,1.46-1.46,2.18-.24.33-.48.66-.72.99-.13.18-.53.7.09-.12.72-.94-.02,0-.13.15-1.1,1.35-2.27,2.63-3.52,3.84-2.47,2.42-2.61,6.94,0,9.34s6.7,2.58,9.34,0c10.42-10.19,16.26-24.7,16.62-39.2s-5.7-29.76-17.41-39.2c-3.53-2.84-7.25-5.3-11.42-7.09-4.73-2.03-9.4-3.26-14.51-3.85-1.57-.18-3.6.87-4.67,1.93-1.15,1.15-2.01,3.02-1.93,4.67s.64,3.48,1.93,4.67c1.37,1.26,2.83,1.72,4.67,1.93h0Z"/>
  <path class="cls-1" d="M288.93,261.47c-4.37,3.87-8.65,7.83-12.85,11.88-1.2,1.16-1.93,3.01-1.93,4.67s.72,3.55,1.93,4.67,2.91,2.01,4.67,1.93,3.38-.68,4.67-1.93c4.2-4.05,8.48-8.02,12.85-11.88,1.22-1.08,1.93-3.08,1.93-4.67s-.72-3.55-1.93-4.67-2.91-2.01-4.67-1.93-3.3.73-4.67,1.93h0Z"/>
</svg>