<?xml version="1.0" encoding="UTF-8"?>
<svg id="Layer_2" data-name="Layer 2" xmlns="http://www.w3.org/2000/svg" viewBox="0 0 443.78 406.54">
  <defs>
    <style>
      .cls-1 {
        fill: #dbc2f5;
      }

      .cls-2 {
        fill: #fe916e;
      }

      .cls-3 {
        fill: #6500d9;
      }

      .cls-4 {
        fill: #c399ef;
      }
    </style>
  </defs>
  <rect class="cls-4" x="75.08" y="240.94" width="293.62" height="142.51" rx="12.58" ry="12.58"/>
  <g>
    <path class="cls-3" d="M178.1,227.01s53.21-48.47,54.73-56.65c1.51-8.18,5.6-20.45,2.12-34.53-3.48-14.09,7.88-20.75,20.14-16.36,12.27,4.39,29.38,23.78,28.63,46.95-.76,23.17-18.33,46.8-18.33,46.8h62.43s10.88,3.18,10.88,18.18-17.47,18.33-17.47,18.33c0,0,21.26,17.57-.7,33.32,0,0,16.21,27.57-11.36,36.96,0,0,18.66,24.69-11.27,35.59,0,0-76.88.76-87.33,0s-28.27-8.48-32.46-14.54v-114.05Z"/>
    <rect class="cls-1" x="98.48" y="205.99" width="82.94" height="161.55" rx="14.88" ry="14.88"/>
    <path class="cls-2" d="M298.77,98.96c-1.52,0-3.04-.58-4.2-1.74-2.32-2.32-2.32-6.08,0-8.4l31.42-31.42c2.32-2.32,6.08-2.32,8.4,0,2.32,2.32,2.32,6.08,0,8.4l-31.42,31.42c-1.16,1.16-2.68,1.74-4.2,1.74Z"/>
    <path class="cls-2" d="M204.34,98.96c-1.52,0-3.04-.58-4.2-1.74l-31.42-31.42c-2.32-2.32-2.32-6.08,0-8.4,2.32-2.32,6.08-2.32,8.4,0l31.42,31.42c2.32,2.32,2.32,6.08,0,8.4-1.16,1.16-2.68,1.74-4.2,1.74Z"/>
    <g>
      <path class="cls-2" d="M184.78,146.18h-44.44c-3.28,0-5.94-2.66-5.94-5.94s2.66-5.94,5.94-5.94h44.44c3.28,0,5.94,2.66,5.94,5.94s-2.66,5.94-5.94,5.94Z"/>
      <path class="cls-2" d="M362.76,146.18h-44.44c-3.28,0-5.94-2.66-5.94-5.94s2.66-5.94,5.94-5.94h44.44c3.28,0,5.94,2.66,5.94,5.94s-2.66,5.94-5.94,5.94Z"/>
    </g>
    <path class="cls-2" d="M251.55,79.4c-3.28,0-5.94-2.66-5.94-5.94V29.03c0-3.28,2.66-5.94,5.94-5.94s5.94,2.66,5.94,5.94v44.44c0,3.28-2.66,5.94-5.94,5.94Z"/>
    <circle class="cls-3" cx="149.89" cy="331" r="16.66"/>
  </g>
</svg>