<?xml version="1.0" encoding="UTF-8"?>
<svg id="Layer_2" data-name="Layer 2" xmlns="http://www.w3.org/2000/svg" viewBox="0 0 443.78 406.54">
  <defs>
    <style>
      .cls-1 {
        stroke: #c9a2f0;
      }

      .cls-1, .cls-2, .cls-3, .cls-4, .cls-5 {
        stroke-width: 8px;
      }

      .cls-1, .cls-2, .cls-3, .cls-5 {
        stroke-linecap: round;
      }

      .cls-1, .cls-5 {
        fill: none;
      }

      .cls-2 {
        stroke: #fd9b79;
      }

      .cls-2, .cls-3, .cls-4 {
        fill: #6500d9;
      }

      .cls-3 {
        stroke-linejoin: round;
      }

      .cls-3, .cls-4, .cls-5 {
        stroke: #6500d9;
      }

      .cls-6 {
        fill: #f9f9ff;
      }

      .cls-7 {
        fill: #fbb5a0;
      }

      .cls-8 {
        fill: #c399ef;
      }
    </style>
  </defs>
  <circle class="cls-7" cx="219.54" cy="169.95" r="135.03"/>
  <path class="cls-8" d="M333.03,215.27v-82.51c-.18-26.84,33.89-25.21,34.16-.27,0,109.17,4.07,120.37-12.56,142.15l-44.82,58.83s-6.24,7.23-4.43,33.89l-68.59.63v-58.38c0-22.68,26.39-38.05,26.39-38.05,34.43-23.13,47.72-58.74,69.77-56.3h.09Z"/>
  <path class="cls-8" d="M111.18,215.27c22.5-2.44,34.52,32.62,69.77,56.3,0,0,26.3,15.36,26.3,38.05v58.38l-68.5-.63c1.81-26.66-4.43-33.89-4.43-33.89-70.04-91.91-57.29-55.76-57.29-200.98.18-24.94,34.25-26.66,34.07.27v82.51h.09Z"/>
  <path class="cls-6" d="M236.79,371.61c-5.15,0-3.61-1.9-3.52-61.99,0-24.49,27.02-40.49,28.11-41.21,31.45-21.15,45.64-55.13,68.05-56.84v-78.89c0-13.01,8.77-23.23,20.06-23.32,11.3-.09,21.15,10.03,21.24,23.04v105.01c0,27.56-10.12,35.24-58.11,98.23-.09.18-5.33,7.32-3.61,31.45.27,4.88-.27,4.52-72.21,4.52h0ZM331.05,218.7c-18.44,0-32.26,33.17-65.88,55.76-.45.27-24.76,14.73-24.76,35.06v54.76l61.09-.54c-1.08-24.31,4.79-31.9,5.42-32.71,69.31-91.09,56.48-54.4,56.48-198.63-.18-20.6-27.02-21.24-26.93.18v79.53c15.18,4.34,16.09,24.76,2.98,39.04-33.98,36.96-33.17,37.87-36.69,34.61-3.8-3.43-.54-4.79,31.36-39.49,9.76-10.66,10.66-27.65-3.16-27.65l.09.09Z"/>
  <path class="cls-6" d="M207.33,371.61c-75.01-.63-72.57.63-72.21-4.52,1.63-24.13-3.52-31.36-3.61-31.45l-44.82-58.92c-16.99-22.14-13.28-33.08-13.28-144.41,0-12.74,9.58-23.04,21.15-23.04,10.93,0,20.24,9.85,20.15,23.32v78.89c14.82,1.17,22.14,12.38,43.38,35.52,21.87,23.5,52.78,33.17,52.78,62.54,0,59.37,1.54,61.99-3.52,61.99v.09ZM142.53,363.84l61.18.54v-54.76c0-24.31-26.12-32.08-50.88-57.57-18.62-20.24-28.29-34.7-41.3-33.17-12.38,1.17-11.03,17.35-1.63,27.56,33.98,36.96,34.97,36.24,31.36,39.49-3.8,3.43-4.79.09-36.69-34.61-13.28-14.46-12.02-34.79,2.98-39.04v-79.53c.09-22.05-26.75-20.33-26.93-.18,0,106.91-3.98,119.38,11.75,139.98l44.82,58.83c.54.63,6.42,8.22,5.33,32.53v-.09Z"/>
  <g>
    <polyline class="cls-3" points="208.48 226.97 208.48 243.02 186.2 243.02 186.2 226.97"/>
    <polyline class="cls-3" points="269.48 226.97 269.48 243.02 247.21 243.02 247.21 226.97"/>
    <path class="cls-3" d="M186.91,119.44c-4.8-5.11-15.82-12.95-23.43-12.95-.15,0-.3.02-.45.02v28.85"/>
    <path class="cls-4" d="M182.62,123.92c-15.34,5.68-27.34,18.12-32.28,33.66h-4.82c-5.09,0-9.21,4.13-9.21,9.21v12.4c0,5.09,4.13,9.21,9.21,9.21h0l-.03.13c-1.01,4.83,2.68,9.38,7.62,9.38h0c6.37,13.21,18.11,23.4,32.44,27.78,4.99,1.53,10.3,2.35,15.8,2.35h60.75s31.91,3.73,31.91-49.19v-5.43c0-16.94-9.71-30.2-20.6-41.7-11.46-12.09-51.31-11.16-51.31-11.16h-16.04"/>
    <path class="cls-1" d="M160.36,169.03c0-4.38,3.59-7.93,8.02-7.93s8.02,3.55,8.02,7.93"/>
    <path class="cls-3" d="M204.88,147.01c2.84-4.15,4.49-9.15,4.49-14.53,0-14.35-11.77-25.99-26.28-25.99-.15,0-.3.02-.45.02v40.5"/>
    <path class="cls-5" d="M287.52,145.04c13.83-4.26,15.26-12.52,15.26-18.93,0-5.12-4.15-9.28-9.28-9.28-4.1,0-7.42,3.32-7.42,7.42,0,3.28,2.66,5.94,5.94,5.94"/>
    <g>
      <path class="cls-2" d="M269.48,115.97c0,10.54-8.64,19.09-19.31,19.09s-19.31-8.55-19.31-19.09,8.64-19.09,19.31-19.09,19.31,8.55,19.31,19.09Z"/>
      <line class="cls-2" x1="250.17" y1="122.36" x2="250.17" y2="109.58"/>
    </g>
    <path class="cls-1" d="M223.77,134.49h15c1.44,0,2.86.06,4.27.17,3.9.31,7.68,1.02,11.3,2.11,3.78,1.13,7.38,2.68,10.75,4.56"/>
  </g>
</svg>